<svg xmlns="http://www.w3.org/2000/svg" viewBox="0 0 15.63 13.75"><defs><style>.cls-1{fill:#0a3847;fill-rule:evenodd;}</style></defs><title>Asset 3</title><g id="Layer_2" data-name="Layer 2"><g id="Layer_1-2" data-name="Layer 1"><path class="cls-1" d="M7.81,13.75A1.22,1.22,0,0,1,7,13.39L1.2,7.51A4.5,4.5,0,0,1,2,.72,4.23,4.23,0,0,1,6.59.65,4.42,4.42,0,0,1,7.81,1.79,4.29,4.29,0,0,1,13.64.72a4.48,4.48,0,0,1,.79,6.77l-5.76,5.9a1.22,1.22,0,0,1-.86.36M4.36,1.88A2.42,2.42,0,0,0,3,2.27,2.66,2.66,0,0,0,1.89,4.15a2.62,2.62,0,0,0,.68,2.08l5.24,5.33,5.26-5.34a2.61,2.61,0,0,0,.66-2.07,2.56,2.56,0,0,0-1.15-1.87h0a2.37,2.37,0,0,0-2.57,0,21.94,21.94,0,0,0-2,1.7.24.24,0,0,1-.33,0,23.35,23.35,0,0,0-2-1.7,2.39,2.39,0,0,0-1.26-.36"/></g></g></svg>